HIERARCHY
ROOT root
{
	OFFSET	0	13.1	24.9
	CHANNELS 6  Xposition Yposition Zposition Xrotation Yrotation Zrotation
	JOINT spine_1
	{
		OFFSET	0	9.99999	0
		CHANNELS 3  Xrotation Yrotation Zrotation
		JOINT spine_2
		{
			OFFSET	0	112	-10
			CHANNELS 3  Xrotation Yrotation Zrotation
			JOINT spine_3
			{
				OFFSET	0	206.5	19.3
				CHANNELS 3  Xrotation Yrotation Zrotation
				JOINT spine_4
				{
					OFFSET	0	110.4	14.6
					CHANNELS 3  Xrotation Yrotation Zrotation
					JOINT neck_1
					{
						OFFSET	0	71.8	-50.3
						CHANNELS 3  Xrotation Yrotation Zrotation
						JOINT neck_2
						{
							OFFSET	0	86.2	-25.8
							CHANNELS 3  Xrotation Yrotation Zrotation
							JOINT head_ee
							{
								OFFSET	0	179.8	-8.7
								CHANNELS 3  Xrotation Yrotation Zrotation
								End Site
								{
									OFFSET	1	0	0
								}
							}
						}
					}
					JOINT left_clavicle
					{
						OFFSET	-43.2	22.4	-70.8
						CHANNELS 3  Xrotation Yrotation Zrotation
						JOINT left_shoulder
						{
							OFFSET	-93.9	-5.79999	48.7
							CHANNELS 3  Xrotation Yrotation Zrotation
							JOINT left_elbow
							{
								OFFSET	-291.4	-30.8	15.2
								CHANNELS 3  Xrotation Yrotation Zrotation
								JOINT left_lowarm_twist
								{
									OFFSET	-110.7	-3.89999	13.6
									CHANNELS 3  Xrotation Yrotation Zrotation
									JOINT left_hand
									{
										OFFSET	-110.7	-3.89999	13.6
										CHANNELS 3  Xrotation Yrotation Zrotation
										JOINT left_ee
										{
											OFFSET	-80.8	-5.10001	12.1
											CHANNELS 3  Xrotation Yrotation Zrotation
											End Site
											{
												OFFSET	1	0	0
											}
										}
									}
								}
							}
						}
					}
					JOINT right_clavicle
					{
						OFFSET	43.2	22.4	-70.8
						CHANNELS 3  Xrotation Yrotation Zrotation
						JOINT right_shoulder
						{
							OFFSET	93.9	-5.79999	48.7
							CHANNELS 3  Xrotation Yrotation Zrotation
							JOINT right_elbow
							{
								OFFSET	291.4	-30.8	15.2
								CHANNELS 3  Xrotation Yrotation Zrotation
								JOINT right_lowarm_twist
								{
									OFFSET	110.7	-3.89999	13.6
									CHANNELS 3  Xrotation Yrotation Zrotation
									JOINT right_hand
									{
										OFFSET	110.7	-3.89999	13.6
										CHANNELS 3  Xrotation Yrotation Zrotation
										JOINT right_ee
										{
											OFFSET	80.8	-5.10001	12.1
											CHANNELS 3  Xrotation Yrotation Zrotation
											End Site
											{
												OFFSET	1	0	0
											}
										}
									}
								}
							}
						}
					}
				}
			}
		}
	}
	JOINT left_hip
	{
		OFFSET	-82.8	-127.5	0.300001
		CHANNELS 3  Xrotation Yrotation Zrotation
		JOINT left_knee
		{
			OFFSET	-28.2	-396.7	2.2
			CHANNELS 3  Xrotation Yrotation Zrotation
			JOINT left_ankle
			{
				OFFSET	-11.7	-411.3	35.4
				CHANNELS 3  Xrotation Yrotation Zrotation
				JOINT left_toes
				{
					OFFSET	0	-60	-88.6
					CHANNELS 3  Xrotation Yrotation Zrotation
					JOINT left_foot_ee
					{
						OFFSET	-22.5	-16.5	-42.2
						CHANNELS 3  Xrotation Yrotation Zrotation
						End Site
						{
							OFFSET	1	0	0
						}
					}
				}
			}
		}
	}
	JOINT right_hip
	{
		OFFSET	82.8	-127.5	0.300001
		CHANNELS 3  Xrotation Yrotation Zrotation
		JOINT right_knee
		{
			OFFSET	28.2	-396.7	2.2
			CHANNELS 3  Xrotation Yrotation Zrotation
			JOINT right_ankle
			{
				OFFSET	11.7	-411.3	35.4
				CHANNELS 3  Xrotation Yrotation Zrotation
				JOINT right_toes
				{
					OFFSET	0	-60	-88.6
					CHANNELS 3  Xrotation Yrotation Zrotation
					JOINT right_foot_ee
					{
						OFFSET	22.5	-16.5	-42.2
						CHANNELS 3  Xrotation Yrotation Zrotation
						End Site
						{
							OFFSET	1	0	0
						}
					}
				}
			}
		}
	}
}
MOTION
Frames: 13
Frame Time: 0.02
412.265 744.763 -604.47 -175.351 -62.6309 -179.914 0.568797 0.957478 2.99288 0.573454 0.765184 3.04767 0.616578 0.141865 3.13897 0.603393 0.63559 3.07728 -2.57847 11.1033 -3.13795 -2.2665 22.5887 -1.77873 -0.0 0.0 -0.0 -4.12254 24.997 -2.58617 -8.4265 -19.7281 66.7574 2.47827 -50.8273 1.17763 -58.7627 -5.12929 5.061 -0.658231 18.4995 3.51836 -0.0 0.0 -0.0 9.72608 11.1 -19.215 -19.2478 36.2776 -55.9406 0.919852 24.4969 -0.199697 -3.82592 0.150414 -0.465243 2.40431 -29.6421 -25.277 0.0 0.0 0.0 -7.97113 69.8872 5.07208 -3.80679 0.137912 0.567841 7.79008 -28.5635 -1.38885 6.88105 -0.0 -0.0 -0.0 0.0 -0.0 12.7471 25.1923 5.19595 -23.4608 -0.238515 -3.56726 6.00683 8.08118 0.9007 21.3009 -0.0 -0.0 0.0 0.0 0.0 
416.777 740.421 -591.794 -176.823 -62.4798 178.615 0.452673 0.774481 3.02717 0.457584 0.580378 3.07026 0.491116 -0.0508612 3.12417 0.47777 0.442941 3.09306 -3.64733 10.8914 -3.09086 -3.40617 22.2501 -1.54743 -0.0 0.0 -0.0 -4.25935 24.6312 -2.85606 -9.09696 -17.3257 66.6961 2.38285 -49.7222 1.10424 -58.7004 -5.12159 5.05889 -0.658449 18.5038 3.51883 -0.0 0.0 -0.0 9.91701 12.6807 -19.5938 -17.0047 37.189 -56.2895 0.971453 25.6978 -0.221585 -3.52448 0.137438 -0.428957 2.42757 -30.0115 -25.4869 0.0 0.0 0.0 -1.63996 69.8668 -1.21171 -4.08074 0.146375 0.609032 5.93324 -25.1924 -1.0225 5.11444 -0.0 -0.0 -0.0 0.0 -0.0 11.2521 24.1378 5.63117 -23.8756 -0.229531 -3.63028 6.31119 8.56217 0.947722 22.1931 -0.0 -0.0 0.0 0.0 0.0 
423.306 735.55 -584.972 -179.047 -63.6656 176.01 0.31776 0.668753 3.12148 0.323058 0.468871 3.15766 0.35153 -0.185663 3.18685 0.337501 0.319711 3.17621 -5.62112 10.2866 -4.11171 -5.46614 22.0173 -2.30612 -0.0 0.0 -0.0 -4.16256 24.4581 -2.76615 -9.71552 -15.618 66.784 2.26504 -48.2847 1.01532 -59.1129 -5.17264 5.07271 -0.817394 19.8285 3.12119 -0.0 0.0 -0.0 10.008 13.8269 -19.7573 -14.0936 38.0993 -56.9647 1.02119 26.8328 -0.243596 -2.41866 0.0914739 -0.295277 2.4599 -29.6815 -25.6217 0.0 0.0 0.0 1.60319 69.7439 -4.05956 -6.36943 0.209358 0.954599 4.50607 -22.843 -0.760623 3.8904 -0.0 -0.0 -0.0 0.0 -0.0 10.3737 23.3891 5.77046 -24.1771 -0.222715 -3.67604 8.71984 9.01442 1.30152 23.1555 -0.0 -0.0 0.0 0.0 0.0 
424.834 741.765 -582.274 179.47 -64.0593 174.75 0.0907839 0.921628 3.20806 0.0962243 0.715735 3.26012 0.140416 0.0231666 3.3376 0.125294 0.549699 3.29216 -7.26875 9.8095 -4.38074 -7.20096 21.3794 -2.34101 -0.0 0.0 -0.0 -4.06108 24.4288 -2.63563 -10.2652 -14.455 67.2723 2.10944 -46.2537 0.901004 -59.4059 -5.20896 5.0823 -0.870423 19.5931 2.70571 -0.0 0.0 -0.0 10.2266 14.7555 -20.2073 -11.8482 39.019 -58.2595 1.06039 27.7117 -0.261561 -1.23207 0.0450375 -0.15089 2.51535 -29.5341 -25.9323 0.0 0.0 0.0 6.89267 68.8391 -9.51598 -7.70464 0.239706 1.15725 3.99608 -20.4236 -0.659523 3.03361 -0.0 -0.0 -0.0 0.0 -0.0 9.482 22.2336 6.15131 -25.1277 -0.199646 -3.8201 10.4061 9.33949 1.54609 24.9717 -0.0 -0.0 0.0 0.0 0.0 
430.593 740.127 -579.116 179.225 -63.9448 173.868 0.0105391 1.17381 3.45337 0.0166695 0.951823 3.52095 0.0795798 0.19652 3.64189 0.0618981 0.768853 3.56532 -8.40839 9.46963 -4.61575 -8.39348 20.9277 -2.426 -0.0 0.0 -0.0 -3.94685 24.4215 -2.48273 -10.8423 -13.5383 67.5997 1.98225 -44.4733 0.810488 -59.5702 -5.22935 5.0876 -0.912087 19.497 2.4163 -0.0 0.0 -0.0 10.3842 15.6694 -20.5197 -10.1036 39.6968 -58.7441 1.08001 28.1463 -0.27075 -0.422956 0.0150946 -0.051906 2.54911 -29.4265 -26.1192 0.0 0.0 0.0 11.7145 67.988 -13.7686 -8.61889 0.257758 1.29638 3.65717 -18.6696 -0.594591 2.4366 -0.0 -0.0 -0.0 0.0 -0.0 7.63606 21.3295 6.61078 -26.0705 -0.174409 -3.96257 11.5683 9.6964 1.71422 26.2374 -0.0 -0.0 0.0 0.0 0.0 
434.025 737.118 -575.38 178.811 -62.9559 173.825 -0.0324653 1.3498 3.60726 -0.025921 1.11768 3.6857 0.0510577 0.322827 3.83768 0.0316999 0.924442 3.73878 -9.24792 9.25294 -4.78117 -9.26954 20.6384 -2.47825 -0.0 0.0 -0.0 -3.96864 24.3839 -2.5208 -11.5628 -12.7868 67.4965 1.88118 -42.9762 0.740623 -59.6552 -5.23991 5.09032 -0.940583 19.467 2.23341 -0.0 0.0 -0.0 10.375 16.4276 -20.463 -9.1598 40.1319 -58.554 1.09334 28.4395 -0.277066 0.142639 -0.00500389 0.0175296 2.5712 -29.3287 -26.237 0.0 0.0 0.0 14.719 67.2452 -16.2668 -9.55302 0.273906 1.43881 3.42029 -17.4214 -0.550542 2.03167 -0.0 -0.0 -0.0 0.0 -0.0 6.29065 20.6676 6.86903 -26.759 -0.154496 -4.06637 12.3952 9.94738 1.83312 27.1317 -0.0 -0.0 0.0 0.0 0.0 
435.593 741.74 -574.105 178.018 -60.7808 172.614 -0.145293 1.55067 3.99019 -0.137367 1.29384 4.08058 -0.0386332 0.406393 4.26116 -0.0623586 1.07369 4.14385 -11.919 9.51564 -8.52618 -11.9958 23.5081 -5.51555 -0.0 0.0 -0.0 -3.96296 24.3288 -2.52569 -12.7334 -12.1473 67.3333 1.63665 -39.0303 0.580091 -57.7027 -4.99851 5.02393 -1.13232 22.7235 2.5116 -0.0 0.0 -0.0 10.4819 18.0103 -20.6158 -6.60287 40.7803 -57.8634 1.08506 28.2575 -0.273134 1.24483 -0.0421941 0.153387 2.55077 -26.6843 -25.5957 0.0 0.0 0.0 15.7236 63.7804 -16.362 -18.6786 0.309023 2.83706 7.41234 -12.8312 -1.13727 3.46289 -0.0 -0.0 -0.0 0.0 -0.0 4.00272 19.9026 7.1671 -21.3262 -0.277521 -3.24204 12.8865 12.5432 1.93162 25.2457 -0.0 -0.0 0.0 0.0 0.0 
435.651 745.053 -570.929 176.875 -60.6473 171.478 -0.272384 1.47302 4.28983 -0.262945 1.19734 4.37464 -0.163852 0.239967 4.52889 -0.191204 0.951502 4.4345 -12.742 10.1998 -10.2304 -12.8542 25.8082 -6.76771 -0.0 0.0 -0.0 -3.88966 24.2921 -2.43461 -13.1226 -10.3392 67.6828 1.48202 -36.2818 0.485593 -57.0211 -4.91478 4.99882 -1.40228 26.5143 2.64845 -0.0 0.0 -0.0 11.9712 18.9186 -23.9405 -4.47948 40.9439 -57.9811 0.957431 25.3738 -0.215541 2.08657 -0.0688306 0.257601 1.97788 -24.3596 -21.475 0.0 0.0 0.0 19.7303 55.6055 -18.6898 -28.5937 0.0953547 4.34172 8.05279 -5.89914 -1.18688 5.03236 -0.0 -0.0 -0.0 0.0 -0.0 2.38428 19.3236 7.72715 -17.1584 -0.318644 -2.60402 13.2086 14.3782 2.00174 23.3408 -0.0 -0.0 0.0 0.0 0.0 
434.055 750.423 -556.617 176.235 -59.6689 172.163 -0.181781 1.39559 4.33552 -0.17202 1.11716 4.41533 -0.0785414 0.159503 4.5514 -0.106371 0.875586 4.4694 -13.3869 10.7065 -11.5181 -13.5369 27.4937 -7.68733 -0.0 0.0 -0.0 -3.99347 24.2265 -2.59051 -13.3754 -9.0151 67.7563 1.38099 -34.3743 0.427168 -56.5362 -4.85539 4.98035 -1.60082 29.1639 2.75674 -0.0 0.0 -0.0 12.9794 20.0207 -26.1961 -2.39713 41.1809 -57.919 0.894072 23.8881 -0.189132 2.74528 -0.0886046 0.339416 1.55996 -22.4332 -18.3587 0.0 0.0 0.0 21.4778 49.7031 -18.6486 -35.3896 -0.199805 5.34216 8.35203 -0.813235 -1.20799 6.03766 -0.0 -0.0 -0.0 0.0 -0.0 0.318991 18.8282 8.06344 -14.4416 -0.32043 -2.18723 13.4507 15.8212 2.05785 22.0146 -0.0 -0.0 0.0 0.0 0.0 
443.47 748.349 -558.468 173.683 -59.7792 168.25 -0.37514 1.39257 4.66916 -0.363678 1.09299 4.74807 -0.264069 0.0496553 4.87171 -0.296244 0.817529 4.80304 -13.9419 11.1613 -12.2422 -14.153 28.7237 -8.082 -0.0 0.0 -0.0 -4.13405 24.6564 -2.68123 -14.5002 -7.98218 67.9037 1.29456 -32.6699 0.379428 -56.1751 -4.81127 4.96627 -1.70591 30.6776 2.88989 -0.0 0.0 -0.0 13.6764 20.7445 -27.7733 -1.29428 41.3879 -57.1043 0.851041 22.8591 -0.17206 3.2089 -0.101957 0.397131 1.25809 -21.0868 -16.0884 0.0 0.0 0.0 22.7489 45.0973 -18.3308 -40.0349 -0.468987 6.00317 8.55777 2.74762 -1.22745 6.62047 -0.0 -0.0 -0.0 0.0 -0.0 -1.06367 18.474 8.1163 -12.5307 -0.309849 -1.89423 13.5849 16.8297 2.09342 21.0844 -0.0 -0.0 0.0 0.0 0.0 
459.771 746.772 -557.201 171.042 -60.3987 165.32 -0.567077 1.42597 4.89623 -0.554432 1.11192 4.97677 -0.447245 0.00278553 5.09917 -0.482605 0.807033 5.03506 -14.3992 11.5239 -12.665 -14.6755 29.5993 -8.23126 -0.0 0.0 -0.0 -4.23777 24.958 -2.74948 -15.8355 -7.10253 68.1457 1.21233 -30.9858 0.336058 -55.8917 -4.77671 4.95502 -1.71647 31.1848 3.06697 -0.0 0.0 -0.0 14.1762 21.3894 -28.9011 0.038388 41.6749 -56.5739 0.832083 22.4008 -0.164766 3.58384 -0.112413 0.443884 1.03772 -20.0616 -14.4002 0.0 0.0 0.0 25.3717 41.3109 -18.9546 -42.295 -0.619195 6.31654 8.69626 5.32087 -1.24289 7.0279 -0.0 -0.0 -0.0 0.0 -0.0 -4.44614 18.0032 9.39512 -12.5725 -0.310185 -1.90063 13.5354 17.3828 2.09553 20.4333 -0.0 -0.0 0.0 0.0 0.0 
472.558 746.935 -555.478 168.336 -63.3338 162.535 -0.774766 0.913406 5.13712 -0.760281 0.585117 5.18466 -0.696267 -0.581465 5.18507 -0.73368 0.243568 5.21181 -14.9787 12.0694 -12.1197 -15.4058 30.2219 -7.32872 -0.0 0.0 -0.0 -4.24062 25.1596 -2.70543 -16.758 -6.49015 68.3358 1.01916 -26.7868 0.242679 -55.4168 -4.7189 4.93579 -1.39751 28.7025 3.64191 -0.0 0.0 -0.0 13.7785 22.3073 -27.8803 1.22408 41.7732 -56.7409 0.941751 25.0094 -0.208867 4.84508 -0.145335 0.601629 0.594147 -17.2549 -10.6865 0.0 0.0 0.0 26.5755 38.7756 -17.4773 -43.365 -0.694608 6.46281 7.37451 8.00191 -1.05738 6.96407 -0.0 -0.0 -0.0 0.0 -0.0 -6.60849 17.9633 9.86818 -12.6438 -0.310748 -1.91157 13.0309 17.2781 2.02022 19.981 -0.0 -0.0 0.0 0.0 0.0 
480.316 747.28 -552.863 167.64 -65.9927 161.778 -0.660611 0.519879 5.26153 -0.645237 0.184499 5.28386 -0.61831 -0.988727 5.19406 -0.655902 -0.15721 5.28474 -15.3891 12.442 -11.7234 -15.9255 30.6374 -6.67889 -0.0 0.0 -0.0 -4.10781 24.9481 -2.57791 -16.9261 -6.14551 68.4584 0.90263 -24.0908 0.192612 -55.0837 -4.67844 4.92202 -1.18079 26.9588 4.06574 -0.0 0.0 -0.0 13.5369 23.0045 -27.2477 2.33666 41.9745 -56.9529 1.03237 27.0848 -0.248665 5.72845 -0.166321 0.71252 0.282177 -15.236 -7.99332 0.0 0.0 0.0 27.4768 37.0072 -16.6501 -44.0589 -0.744977 6.55692 6.43343 9.91916 -0.925615 6.91778 -0.0 -0.0 -0.0 0.0 -0.0 -7.939 18.1909 10.3537 -12.7183 -0.311321 -1.92299 12.681 17.2111 1.96792 19.6627 -0.0 -0.0 0.0 0.0 0.0 
